<svg width="26" height="27" viewBox="0 0 26 27" fill="none" xmlns="http://www.w3.org/2000/svg">
<path id="Vector" d="M13 0.5C5.8203 0.5 0 6.3203 0 13.5C0 20.6808 5.8203 26.5 13 26.5C20.1797 26.5 26 20.6808 26 13.5C26 6.3203 20.1792 0.5 13 0.5ZM13.7454 5.7718C14.3351 5.0797 15.3323 4.56656 16.1548 4.5333C16.2599 5.492 15.8735 6.45334 15.3033 7.14491C14.731 7.83596 13.795 8.37391 12.8759 8.30264C12.7524 7.364 13.2154 6.38418 13.7454 5.7718ZM18.4265 18.8637C17.7439 19.8609 17.0365 20.8544 15.922 20.8745C14.8261 20.8951 14.4734 20.2252 13.2217 20.2252C11.969 20.2252 11.5773 20.855 10.5399 20.8956C9.46453 20.9357 8.6452 19.8202 7.95732 18.8262C6.55042 16.7947 5.47716 13.0851 6.92049 10.5806C7.63529 9.33578 8.91602 8.55023 10.305 8.52859C11.3629 8.50906 12.3602 9.24128 13.0053 9.24128C13.652 9.24128 14.8641 8.36177 16.139 8.49163C16.6722 8.51328 18.1694 8.70597 19.1312 10.1129C19.0542 10.1614 17.3432 11.1566 17.3638 13.2286C17.3865 15.7041 19.5351 16.526 19.5599 16.5387C19.5399 16.5947 19.2152 17.7112 18.4265 18.8637Z" fill="black"/>
</svg>
