<svg width="26" height="25" viewBox="0 0 26 25" fill="none" xmlns="http://www.w3.org/2000/svg">
<g id="_x31__stroke">
<g id="Google">
<path id="Vector" fill-rule="evenodd" clip-rule="evenodd" d="M5.88762 12.5C5.88762 11.688 6.02239 10.9095 6.26321 10.1795L2.05032 6.96246C1.22922 8.62946 0.766724 10.508 0.766724 12.5C0.766724 14.4904 1.22883 16.3675 2.04856 18.0336L6.25911 14.8103C6.02063 14.0836 5.88762 13.308 5.88762 12.5Z" fill="#FBBC05"/>
<path id="Vector_2" fill-rule="evenodd" clip-rule="evenodd" d="M13.2846 5.11367C15.0485 5.11367 16.6416 5.73867 17.8934 6.76133L21.5348 3.125C19.3158 1.19316 16.4709 0 13.2846 0C8.33772 0 4.08616 2.82891 2.05042 6.9625L6.26311 10.1795C7.23381 7.23301 10.0008 5.11367 13.2846 5.11367Z" fill="#EA4335"/>
<path id="Vector_3" fill-rule="evenodd" clip-rule="evenodd" d="M13.2846 19.8864C10.001 19.8864 7.23401 17.767 6.26331 14.8206L2.05042 18.037C4.08616 22.1711 8.33772 25 13.2846 25C16.3377 25 19.2528 23.9159 21.4405 21.8846L17.4416 18.7932C16.3133 19.504 14.8924 19.8864 13.2846 19.8864Z" fill="#34A853"/>
<path id="Vector_4" fill-rule="evenodd" clip-rule="evenodd" d="M25.2332 12.5001C25.2332 11.7615 25.1193 10.966 24.9486 10.2275H13.2845V15.057H19.9986C19.6629 16.7037 18.7492 17.9695 17.4416 18.7933L21.4404 21.8847C23.7385 19.7519 25.2332 16.5745 25.2332 12.5001Z" fill="#4285F4"/>
</g>
</g>
</svg>
