<svg width="26" height="27" viewBox="0 0 26 27" fill="none" xmlns="http://www.w3.org/2000/svg">
<g id="instagram_icon" clip-path="url(#clip0_331_1773)">
<path id="Vector" d="M13 26.5C5.8214 26.5 0 20.6786 0 13.5C0 6.3214 5.8214 0.5 13 0.5C20.1786 0.5 26 6.3214 26 13.5C26 20.6786 20.1786 26.5 13 26.5Z" fill="url(#paint0_linear_331_1773)"/>
<g id="Group">
<path id="Vector_2" d="M13 6.22522C15.3686 6.22522 15.6494 6.23302 16.5854 6.27722C17.4512 6.31622 17.9218 6.46182 18.2338 6.58402C18.6472 6.74522 18.9436 6.93762 19.253 7.24702C19.5624 7.55642 19.7548 7.85282 19.916 8.26622C20.0382 8.57822 20.1812 9.04882 20.2228 9.91462C20.2644 10.8506 20.2748 11.1314 20.2748 13.5C20.2748 15.8686 20.267 16.1494 20.2228 17.0854C20.1838 17.9512 20.0382 18.4218 19.916 18.7338C19.7548 19.1472 19.5624 19.4436 19.253 19.753C18.9436 20.0624 18.6472 20.2548 18.2338 20.416C17.9218 20.5382 17.4512 20.6812 16.5854 20.7228C15.6494 20.7644 15.3686 20.7748 13 20.7748C10.6314 20.7748 10.3506 20.767 9.4146 20.7228C8.5488 20.6838 8.0782 20.5382 7.7662 20.416C7.3528 20.2548 7.0564 20.0624 6.747 19.753C6.4376 19.4436 6.2452 19.1472 6.084 18.7338C5.9618 18.4218 5.8188 17.9512 5.7772 17.0854C5.7356 16.1494 5.7252 15.8686 5.7252 13.5C5.7252 11.1314 5.733 10.8506 5.7772 9.91462C5.8162 9.04882 5.9618 8.57822 6.084 8.26622C6.2452 7.85282 6.4376 7.55642 6.747 7.24702C7.0564 6.93762 7.3528 6.74522 7.7662 6.58402C8.0782 6.46182 8.5488 6.31882 9.4146 6.27722C10.3506 6.23302 10.6314 6.22522 13 6.22522ZM13 4.62622C10.5898 4.62622 10.2882 4.63662 9.3418 4.68082C8.398 4.72502 7.7532 4.87322 7.1864 5.09422C6.604 5.31782 6.1074 5.62202 5.616 6.11602C5.122 6.61002 4.8204 7.10402 4.5916 7.68902C4.3732 8.25322 4.2224 8.89802 4.1782 9.84442C4.134 10.7908 4.1236 11.0924 4.1236 13.5026C4.1236 15.9128 4.134 16.2144 4.1782 17.1608C4.2224 18.1046 4.3706 18.7494 4.5916 19.3162C4.8178 19.896 5.122 20.3926 5.616 20.884C6.11 21.378 6.604 21.6796 7.189 21.9084C7.7532 22.1268 8.398 22.2776 9.3444 22.3218C10.2908 22.366 10.5924 22.3764 13.0026 22.3764C15.4128 22.3764 15.7144 22.366 16.6608 22.3218C17.6046 22.2776 18.2494 22.1294 18.8162 21.9084C19.396 21.6822 19.8926 21.378 20.384 20.884C20.878 20.39 21.1796 19.896 21.4084 19.311C21.6268 18.7468 21.7776 18.102 21.8218 17.1556C21.866 16.2092 21.8764 15.9076 21.8764 13.4974C21.8764 11.0872 21.866 10.7856 21.8218 9.83922C21.7776 8.89542 21.6294 8.25062 21.4084 7.68382C21.1822 7.10402 20.878 6.60742 20.384 6.11602C19.89 5.62202 19.396 5.32042 18.811 5.09162C18.2468 4.87322 17.602 4.72242 16.6556 4.67822C15.7118 4.63662 15.4102 4.62622 13 4.62622Z" fill="white"/>
<path id="Vector_3" d="M13 8.9422C10.4832 8.9422 8.4422 10.9832 8.4422 13.5C8.4422 16.0168 10.4832 18.0578 13 18.0578C15.5168 18.0578 17.5578 16.0168 17.5578 13.5C17.5578 10.9832 15.5168 8.9422 13 8.9422ZM13 16.4588C11.3672 16.4588 10.0412 15.1354 10.0412 13.5C10.0412 11.8646 11.3672 10.5412 13 10.5412C14.6328 10.5412 15.9588 11.8646 15.9588 13.5C15.9588 15.1354 14.6328 16.4588 13 16.4588Z" fill="white"/>
<path id="Vector_4" d="M17.7372 9.82884C18.3259 9.82884 18.8032 9.35157 18.8032 8.76284C18.8032 8.1741 18.3259 7.69684 17.7372 7.69684C17.1485 7.69684 16.6712 8.1741 16.6712 8.76284C16.6712 9.35157 17.1485 9.82884 17.7372 9.82884Z" fill="white"/>
</g>
</g>
<defs>
<linearGradient id="paint0_linear_331_1773" x1="3.80761" y1="22.6924" x2="22.1924" y2="4.30761" gradientUnits="userSpaceOnUse">
<stop stop-color="#FFD521"/>
<stop offset="0.0551048" stop-color="#FFD020"/>
<stop offset="0.1241" stop-color="#FEC01E"/>
<stop offset="0.2004" stop-color="#FCA71B"/>
<stop offset="0.2821" stop-color="#FA8316"/>
<stop offset="0.3681" stop-color="#F85510"/>
<stop offset="0.4563" stop-color="#F51E09"/>
<stop offset="0.5" stop-color="#F30005"/>
<stop offset="0.5035" stop-color="#F20007"/>
<stop offset="0.5966" stop-color="#E1003B"/>
<stop offset="0.6879" stop-color="#D30067"/>
<stop offset="0.7757" stop-color="#C70088"/>
<stop offset="0.8589" stop-color="#BF00A0"/>
<stop offset="0.9357" stop-color="#BB00AF"/>
<stop offset="1" stop-color="#B900B4"/>
</linearGradient>
<clipPath id="clip0_331_1773">
<rect width="26" height="26" fill="white" transform="translate(0 0.5)"/>
</clipPath>
</defs>
</svg>
