<svg width="30" height="30" viewBox="0 0 30 30" fill="none" xmlns="http://www.w3.org/2000/svg">
<path id="Vector" d="M14.9997 30C23.1913 30 30 23.2059 30 15C30 6.80854 23.1763 0 14.9846 0C6.77919 0 0 6.80854 0 15C0 23.2059 6.79363 30 14.9997 30ZM7.80825 13.3674C7.80825 10.2646 10.3526 7.72024 13.4699 7.72024C16.5734 7.72024 19.1172 10.2646 19.1172 13.3674C19.1229 14.5341 18.7572 15.6725 18.073 16.6176L21.75 20.2945C21.9558 20.5003 22.0882 20.7795 22.0882 21.0587C22.0882 21.6768 21.6615 22.1028 21.088 22.1028C20.7498 22.1028 20.4706 21.9999 20.1908 21.7201L16.5583 18.0883C15.644 18.6993 14.5696 19.0267 13.4699 19.0295C10.3526 19.0295 7.80825 16.4852 7.80825 13.3674ZM9.4403 13.3674C9.4403 15.5735 11.2644 17.3969 13.4699 17.3969C15.6472 17.3969 17.47 15.5735 17.47 13.3674C17.47 11.1913 15.6466 9.36731 13.4699 9.36731C11.2644 9.36731 9.4403 11.1913 9.4403 13.3674Z" fill="black"/>
</svg>
