<svg width="31" height="30" viewBox="0 0 31 30" fill="none" xmlns="http://www.w3.org/2000/svg">
<g id="User">
<path id="Vector" d="M15.5 0.000183105C7.21371 0.000183105 0.5 6.71389 0.5 15.0002C0.5 23.2865 7.21371 30.0002 15.5 30.0002C23.7863 30.0002 30.5 23.2865 30.5 15.0002C30.5 6.71389 23.7863 0.000183105 15.5 0.000183105ZM15.5 5.80663C18.4395 5.80663 20.8226 8.1897 20.8226 11.1292C20.8226 14.0687 18.4395 16.4518 15.5 16.4518C12.5605 16.4518 10.1774 14.0687 10.1774 11.1292C10.1774 8.1897 12.5605 5.80663 15.5 5.80663ZM15.5 26.6131C11.9496 26.6131 8.76814 25.0042 6.63911 22.4881C7.77621 20.347 10.002 18.8712 12.5968 18.8712C12.7419 18.8712 12.8871 18.8953 13.0262 18.9377C13.8125 19.1917 14.6351 19.355 15.5 19.355C16.3649 19.355 17.1935 19.1917 17.9738 18.9377C18.1129 18.8953 18.2581 18.8712 18.4032 18.8712C20.998 18.8712 23.2238 20.347 24.3609 22.4881C22.2319 25.0042 19.0504 26.6131 15.5 26.6131Z" fill="black"/>
</g>
</svg>
