<svg width="25" height="26" viewBox="0 0 25 26" fill="none" xmlns="http://www.w3.org/2000/svg">
<g id="&#240;&#159;&#166;&#134; icon &#34;github&#34;">
<path id="Vector" d="M12.5 1.57065C9.49315 1.5401 6.59723 2.70462 4.44864 4.80828C2.30005 6.91195 1.07461 9.78262 1.04163 12.7894C1.05321 15.1656 1.81761 17.477 3.22502 19.3916C4.63244 21.3063 6.61045 22.7255 8.87496 23.4457C9.44788 23.5498 9.65621 23.2061 9.65621 22.904C9.65621 22.6019 9.65621 21.9352 9.65621 20.9977C6.46871 21.6748 5.79163 19.4977 5.79163 19.4977C5.57943 18.8143 5.12833 18.2301 4.52079 17.8519C3.47913 17.1644 4.60413 17.1748 4.60413 17.1748C4.96418 17.223 5.30866 17.352 5.61174 17.5522C5.91482 17.7525 6.16862 18.0187 6.35413 18.3311C6.67739 18.8916 7.20781 19.3028 7.83122 19.4762C8.45463 19.6496 9.1212 19.5713 9.68746 19.2582C9.7457 18.6877 10.004 18.1563 10.4166 17.7582C7.87496 17.4769 5.20829 16.5186 5.20829 12.2165C5.18556 11.0943 5.60021 10.0072 6.36454 9.18524C6.01645 8.22177 6.05755 7.16056 6.47913 6.2269C6.47913 6.2269 7.44788 5.92482 9.60413 7.37274C11.4811 6.87257 13.4563 6.87257 15.3333 7.37274C17.5208 5.92482 18.4583 6.2269 18.4583 6.2269C18.8799 7.16056 18.921 8.22177 18.5729 9.18524C19.355 9.99216 19.7921 11.0719 19.7916 12.1957C19.7916 16.5082 17.1041 17.4561 14.5833 17.7373C14.8593 18.0053 15.0725 18.3311 15.2076 18.6913C15.3427 19.0516 15.3963 19.4372 15.3645 19.8207V22.8936C15.3645 22.8936 15.5729 23.5498 16.1458 23.4352C18.4039 22.7107 20.3752 21.291 21.7783 19.3791C23.1813 17.4672 23.9443 15.1608 23.9583 12.7894C23.9253 9.78262 22.6999 6.91195 20.5513 4.80828C18.4027 2.70462 15.5068 1.5401 12.5 1.57065Z" fill="#231F20"/>
</g>
</svg>
